<?xml version="1.0" encoding="UTF-8" standalone="no"?>
<svg
   xmlns:dc="http://purl.org/dc/elements/1.1/"
   xmlns:cc="http://creativecommons.org/ns#"
   xmlns:rdf="http://www.w3.org/1999/02/22-rdf-syntax-ns#"
   xmlns:svg="http://www.w3.org/2000/svg"
   xmlns="http://www.w3.org/2000/svg"
   viewBox="0 0 438.67999 48"
   height="48"
   width="438.67999"
   xml:space="preserve"
   id="svg815"
   version="1.1"><metadata
     id="metadata821"><rdf:RDF><cc:Work
         rdf:about=""><dc:format>image/svg+xml</dc:format><dc:type
           rdf:resource="http://purl.org/dc/dcmitype/StillImage" /><dc:title></dc:title></cc:Work></rdf:RDF></metadata><defs
     id="defs819" /><g
     transform="matrix(1.3333333,0,0,-1.3333333,0,48)"
     id="g823"><g
       transform="scale(0.1)"
       id="g825"><path
         id="path827"
         style="fill:#6999cb;fill-opacity:1;fill-rule:nonzero;stroke:none"
         d="m 1417.36,294.473 v -68.114 h -21.49 v 68.114 h -24.37 v 18.117 h 68.24 l 2.99,-18.117 h -25.37" /><path
         id="path829"
         style="fill:#6999cb;fill-opacity:1;fill-rule:nonzero;stroke:none"
         d="m 1506.65,226.359 v 34.993 h -29.87 v -34.993 h -21.37 v 86.231 h 21.37 v -32.617 h 29.87 v 32.617 h 21.49 v -86.231 h -21.49" /><path
         id="path831"
         style="fill:#6999cb;fill-opacity:1;fill-rule:nonzero;stroke:none"
         d="m 1548.05,226.359 v 86.231 h 53.74 v -17.246 h -32.75 v -16.242 h 24.99 l 2.76,-17.125 h -27.75 v -18.243 h 33.87 v -17.375 h -54.86" /><path
         id="path833"
         style="fill:#6999cb;fill-opacity:1;fill-rule:nonzero;stroke:none"
         d="m 1685.66,224.859 c -25.74,0 -41.36,17.246 -41.36,44.489 0,26.746 16.37,44.742 42.36,44.742 9.13,0 16.5,-2 22.74,-5.625 l -2.99,-19.242 c -5.12,4 -11.13,6.996 -18.62,6.996 -13.49,0 -22.12,-10.25 -22.12,-26.742 0,-16.75 9.12,-26.747 22.62,-26.747 6.99,0 13.24,2.625 19.62,6.625 l 2.74,-17.875 c -6.86,-3.996 -14.86,-6.621 -24.99,-6.621" /><path
         id="path835"
         style="fill:#6999cb;fill-opacity:1;fill-rule:nonzero;stroke:none"
         d="m 1726.18,226.359 v 86.231 h 53.74 v -17.246 h -32.74 v -16.242 h 24.99 l 2.75,-17.125 h -27.74 v -18.243 h 33.86 v -17.375 h -54.86" /><path
         id="path837"
         style="fill:#6999cb;fill-opacity:1;fill-rule:nonzero;stroke:none"
         d="m 1833.67,224.859 c -25.74,0 -41.37,17.246 -41.37,44.489 0,26.746 16.38,44.742 42.37,44.742 9.13,0 16.5,-2 22.74,-5.625 l -3,-19.242 c -5.11,4 -11.12,6.996 -18.61,6.996 -13.5,0 -22.12,-10.25 -22.12,-26.742 0,-16.75 9.12,-26.747 22.62,-26.747 6.99,0 13.24,2.625 19.62,6.625 l 2.74,-17.875 c -6.86,-3.996 -14.86,-6.621 -24.99,-6.621" /><path
         id="path839"
         style="fill:#6999cb;fill-opacity:1;fill-rule:nonzero;stroke:none"
         d="m 1874.38,226.359 h 21.3828 v 86.2305 H 1874.38 Z" /><path
         id="path841"
         style="fill:#6999cb;fill-opacity:1;fill-rule:nonzero;stroke:none"
         d="m 1915.77,226.359 v 86.231 h 21.37 v -67.735 h 26.49 l 2.88,-18.496 h -50.74" /><path
         id="path843"
         style="fill:#6999cb;fill-opacity:1;fill-rule:nonzero;stroke:none"
         d="m 2043.5,224.734 c -27.36,0 -42.49,17.996 -42.49,44.614 0,26.746 16.38,44.863 42.99,44.863 10.63,0 19.5,-2.492 26.38,-6.371 l -2.88,-18.617 c -6.5,4.121 -14.12,7.371 -22.99,7.371 -14.87,0 -22.12,-11 -22.12,-27.117 0,-16.247 7.49,-27.618 22.36,-27.618 4.75,0 8.13,0.996 11.63,2.746 v 15.375 h -14.99 l -2.5,15.868 H 2075 v -41.989 c -9,-5.875 -19.62,-9.125 -31.5,-9.125" /><path
         id="path845"
         style="fill:#6999cb;fill-opacity:1;fill-rule:nonzero;stroke:none"
         d="m 2090.76,226.359 h 20.3672 v 21.4961 H 2090.76 Z" /><path
         id="path847"
         style="fill:#6999cb;fill-opacity:1;fill-rule:nonzero;stroke:none"
         d="m 2174,225.359 c -11.62,0 -21.36,2.5 -30.11,6.5 l 3.12,18.246 c 8.87,-4.75 18.74,-8 27.36,-8 6.13,0 10.37,2.625 10.37,7.75 0,4.875 -2.49,7.122 -14.61,11.747 -17.25,6.625 -24.75,12.25 -24.75,26.492 0,16.621 13,25.492 29.5,25.492 11.24,0 18.49,-2.121 25.99,-5.746 l -3.24,-17.992 c -7.76,4.496 -15.88,6.996 -22.5,6.996 -6.5,0 -9.62,-2.75 -9.62,-6.746 0,-4.375 2.37,-6.5 13.11,-10.625 18.88,-6.871 26.25,-13.371 26.25,-27.121 0,-18.747 -13.75,-26.993 -30.87,-26.993" /><path
         id="path849"
         style="fill:#6999cb;fill-opacity:1;fill-rule:nonzero;stroke:none"
         d="m 2271.69,226.359 v 34.993 h -29.87 v -34.993 h -21.37 v 86.231 h 21.37 v -32.617 h 29.87 v 32.617 h 21.49 v -86.231 h -21.49" /><path
         id="path851"
         style="fill:#6999cb;fill-opacity:1;fill-rule:nonzero;stroke:none"
         d="m 2313.08,226.359 v 86.231 h 53.74 v -17.246 h -32.74 v -16.242 h 24.99 l 2.75,-17.125 h -27.74 v -18.243 h 33.87 v -17.375 h -54.87" /><path
         id="path853"
         style="fill:#6999cb;fill-opacity:1;fill-rule:nonzero;stroke:none"
         d="m 2411.13,296.469 h -5.37 v -25.367 h 5 c 9.49,0 14.75,4.121 14.75,12.992 0,8.25 -4.88,12.375 -14.38,12.375 z m 0.38,-41.489 H 2406 v -28.621 h -21.36 v 86.231 h 27.74 c 21,0 33.87,-9.375 33.87,-28.117 0,-19.5 -13.87,-29.493 -34.74,-29.493" /><path
         id="path855"
         style="fill:#6999cb;fill-opacity:1;fill-rule:nonzero;stroke:none"
         d="m 2486.92,225.359 c -11.62,0 -21.36,2.5 -30.11,6.5 l 3.12,18.246 c 8.87,-4.75 18.74,-8 27.36,-8 6.13,0 10.37,2.625 10.37,7.75 0,4.875 -2.49,7.122 -14.61,11.747 -17.25,6.625 -24.75,12.25 -24.75,26.492 0,16.621 13,25.492 29.5,25.492 11.24,0 18.49,-2.121 25.99,-5.746 l -3.24,-17.992 c -7.76,4.496 -15.88,6.996 -22.5,6.996 -6.5,0 -9.62,-2.75 -9.62,-6.746 0,-4.375 2.37,-6.5 13.11,-10.625 18.88,-6.871 26.25,-13.371 26.25,-27.121 0,-18.747 -13.75,-26.993 -30.87,-26.993" /><path
         id="path857"
         style="fill:#6999cb;fill-opacity:1;fill-rule:nonzero;stroke:none"
         d="m 2600.04,224.859 c -25.74,0 -41.37,17.246 -41.37,44.489 0,26.746 16.38,44.742 42.36,44.742 9.13,0 16.51,-2 22.75,-5.625 l -3,-19.242 c -5.12,4 -11.12,6.996 -18.61,6.996 -13.5,0 -22.12,-10.25 -22.12,-26.742 0,-16.75 9.12,-26.747 22.61,-26.747 7,0 13.25,2.625 19.62,6.625 l 2.75,-17.875 c -6.87,-3.996 -14.87,-6.621 -24.99,-6.621" /><path
         id="path859"
         style="fill:#6999cb;fill-opacity:1;fill-rule:nonzero;stroke:none"
         d="m 2640.57,226.359 v 86.231 h 53.74 v -17.246 h -32.75 v -16.242 h 24.99 l 2.76,-17.125 h -27.75 v -18.243 h 33.87 v -17.375 h -54.86" /><path
         id="path861"
         style="fill:#6999cb;fill-opacity:1;fill-rule:nonzero;stroke:none"
         d="m 2765.98,226.359 -34,51.614 v -51.614 h -19.87 v 86.231 h 20.74 l 31.75,-48.235 v 48.235 h 19.87 v -86.231 h -18.49" /><path
         id="path863"
         style="fill:#6999cb;fill-opacity:1;fill-rule:nonzero;stroke:none"
         d="m 2843.7,294.473 v -68.114 h -21.49 v 68.114 h -24.37 v 18.117 h 68.23 l 3,-18.117 h -25.37" /><path
         id="path865"
         style="fill:#6999cb;fill-opacity:1;fill-rule:nonzero;stroke:none"
         d="m 2881.75,226.359 v 86.231 h 53.74 v -17.246 h -32.75 v -16.242 h 24.99 l 2.76,-17.125 h -27.75 v -18.243 h 33.87 v -17.375 h -54.86" /><path
         id="path867"
         style="fill:#6999cb;fill-opacity:1;fill-rule:nonzero;stroke:none"
         d="m 2981.3,296.469 h -6.88 v -25.117 h 6.62 c 9.25,0 14.51,4.496 14.51,12.742 0,8 -5,12.375 -14.25,12.375 z m 17.49,-70.985 -18.87,30.496 h -5.37 v -29.621 h -21.25 v 86.231 h 30.12 c 20.87,0 33.11,-9.496 33.11,-27.246 0,-11.996 -5.99,-20.117 -16.24,-24.492 l 21.12,-31.743 -22.62,-3.625" /><path
         id="path869"
         style="fill:#6999cb;fill-opacity:1;fill-rule:nonzero;stroke:none"
         d="m 3083.92,294.719 v -17.621 h 22.49 l 3,-17.871 h -25.49 v -32.868 h -21.25 v 86.231 h 51.62 v -17.871 h -30.37" /><path
         id="path871"
         style="fill:#6999cb;fill-opacity:1;fill-rule:nonzero;stroke:none"
         d="m 3164.57,297.469 c -12.36,0 -19.74,-10.875 -19.74,-27.992 0,-17.125 7.38,-27.997 19.74,-27.997 12.5,0 19.75,10.872 19.75,27.997 0,17.117 -7.25,27.992 -19.75,27.992 z m -0.12,-72.735 c -24.74,0 -40.99,17.996 -40.99,44.614 0,26.746 16.25,44.863 41.24,44.863 25,0 41.11,-17.992 41.11,-44.613 0,-26.618 -16.24,-44.864 -41.36,-44.864" /><path
         id="path873"
         style="fill:#6999cb;fill-opacity:1;fill-rule:nonzero;stroke:none"
         d="m 3249.97,296.469 h -6.88 v -25.117 h 6.63 c 9.24,0 14.5,4.496 14.5,12.742 0,8 -5,12.375 -14.25,12.375 z m 17.49,-70.985 -18.87,30.496 h -5.37 v -29.621 h -21.25 v 86.231 h 30.12 c 20.87,0 33.11,-9.496 33.11,-27.246 0,-11.996 -5.99,-20.117 -16.24,-24.492 l 21.13,-31.743 -22.63,-3.625" /><path
         id="path875"
         style="fill:#6999cb;fill-opacity:1;fill-rule:nonzero;stroke:none"
         d="m 1427.49,46.3594 v 34.9922 h -29.87 V 46.3594 h -21.37 V 132.59 h 21.37 V 99.9727 h 29.87 V 132.59 h 21.49 V 46.3594 h -21.49" /><path
         id="path877"
         style="fill:#6999cb;fill-opacity:1;fill-rule:nonzero;stroke:none"
         d="M 1468.88,46.3594 V 132.59 h 53.74 v -17.246 h -32.75 V 99.1016 h 24.99 l 2.76,-17.125 h -27.75 V 63.7344 h 33.87 v -17.375 h -54.86" /><path
         id="path879"
         style="fill:#6999cb;fill-opacity:1;fill-rule:nonzero;stroke:none"
         d="m 1566.36,80.9766 h 19.36 l -9.62,29.9924 z m -0.88,51.9844 h 23.49 l 29.99,-83.9805 -21.62,-3.4961 -6.36,18.7461 h -29.75 l -5.75,-17.8711 h -21 l 31,86.6016" /><path
         id="path881"
         style="fill:#6999cb;fill-opacity:1;fill-rule:nonzero;stroke:none"
         d="M 1631.61,46.3594 V 132.59 h 21.37 V 64.8555 h 26.49 l 2.88,-18.4961 h -50.74" /><path
         id="path883"
         style="fill:#6999cb;fill-opacity:1;fill-rule:nonzero;stroke:none"
         d="M 1726.49,114.473 V 46.3594 H 1705 v 68.1136 h -24.37 v 18.117 h 68.24 l 2.99,-18.117 h -25.37" /><path
         id="path885"
         style="fill:#6999cb;fill-opacity:1;fill-rule:nonzero;stroke:none"
         d="m 1815.78,46.3594 v 34.9922 h -29.87 V 46.3594 h -21.37 V 132.59 h 21.37 V 99.9727 h 29.87 V 132.59 h 21.49 V 46.3594 h -21.49" /><path
         id="path887"
         style="fill:#6999cb;fill-opacity:1;fill-rule:nonzero;stroke:none"
         d="m 1911.9,45.3594 c -11.62,0 -21.36,2.5 -30.11,6.5 l 3.12,18.2461 c 8.87,-4.75 18.74,-8 27.36,-8 6.13,0 10.38,2.625 10.38,7.75 0,4.875 -2.49,7.1211 -14.62,11.7461 -17.25,6.625 -24.75,12.25 -24.75,26.4924 0,16.621 13,25.492 29.5,25.492 11.24,0 18.49,-2.121 25.99,-5.746 l -3.24,-17.992 c -7.76,4.496 -15.88,6.996 -22.5,6.996 -6.5,0 -9.62,-2.75 -9.62,-6.746 0,-4.375 2.37,-6.5 13.11,-10.6253 18.88,-6.8711 26.25,-13.3711 26.25,-27.1211 0,-18.7461 -13.75,-26.9922 -30.87,-26.9922" /><path
         id="path889"
         style="fill:#6999cb;fill-opacity:1;fill-rule:nonzero;stroke:none"
         d="M 1958.36,46.3594 V 132.59 h 53.74 v -17.246 h -32.75 V 99.1016 h 24.99 l 2.76,-17.125 h -27.75 V 63.7344 h 33.87 v -17.375 h -54.86" /><path
         id="path891"
         style="fill:#6999cb;fill-opacity:1;fill-rule:nonzero;stroke:none"
         d="m 2057.91,116.469 h -6.88 V 91.3516 h 6.63 c 9.24,0 14.5,4.4961 14.5,12.7424 0,8 -5,12.375 -14.25,12.375 z m 17.49,-70.9846 -18.87,30.4961 h -5.37 V 46.3594 h -21.25 V 132.59 h 30.12 c 20.87,0 33.11,-9.496 33.11,-27.246 0,-11.9963 -5.99,-20.1174 -16.24,-24.4924 l 21.12,-31.7422 -22.62,-3.625" /><path
         id="path893"
         style="fill:#6999cb;fill-opacity:1;fill-rule:nonzero;stroke:none"
         d="m 2154.57,45.8633 h -23 l -29.75,84.1017 22.88,3.5 19.62,-60.4884 18.62,59.6134 h 22.24 l -30.61,-86.7267" /><path
         id="path895"
         style="fill:#6999cb;fill-opacity:1;fill-rule:nonzero;stroke:none"
         d="m 2197.98,46.3594 h 21.3711 v 86.2305 H 2197.98 Z" /><path
         id="path897"
         style="fill:#6999cb;fill-opacity:1;fill-rule:nonzero;stroke:none"
         d="m 2277.09,44.8594 c -25.74,0 -41.37,17.2461 -41.37,44.4883 0,26.7463 16.38,44.7423 42.36,44.7423 9.14,0 16.51,-2 22.75,-5.625 l -3,-19.242 c -5.12,4 -11.12,6.996 -18.61,6.996 -13.5,0 -22.12,-10.25 -22.12,-26.7424 0,-16.75 9.12,-26.7461 22.62,-26.7461 6.99,0 13.24,2.625 19.61,6.625 l 2.75,-17.875 c -6.87,-3.9961 -14.86,-6.6211 -24.99,-6.6211" /><path
         id="path899"
         style="fill:#6999cb;fill-opacity:1;fill-rule:nonzero;stroke:none"
         d="M 2317.61,46.3594 V 132.59 h 53.74 V 115.344 H 2338.6 V 99.1016 h 24.99 l 2.76,-17.125 H 2338.6 V 63.7344 h 33.87 v -17.375 h -54.86" /><path
         id="path901"
         style="fill:#6999cb;fill-opacity:1;fill-rule:nonzero;stroke:none"
         d="m 2415.03,45.3594 c -11.62,0 -21.37,2.5 -30.12,6.5 l 3.13,18.2461 c 8.86,-4.75 18.74,-8 27.36,-8 6.12,0 10.37,2.625 10.37,7.75 0,4.875 -2.49,7.1211 -14.62,11.7461 -17.24,6.625 -24.74,12.25 -24.74,26.4924 0,16.621 12.99,25.492 29.5,25.492 11.24,0 18.48,-2.121 25.98,-5.746 l -3.24,-17.992 c -7.75,4.496 -15.88,6.996 -22.5,6.996 -6.49,0 -9.62,-2.75 -9.62,-6.746 0,-4.375 2.38,-6.5 13.12,-10.6253 18.87,-6.8711 26.25,-13.3711 26.25,-27.1211 0,-18.7461 -13.75,-26.9922 -30.87,-26.9922" /><path
         id="path903"
         style="fill:#6999cb;fill-opacity:1;fill-rule:nonzero;stroke:none"
         d="m 2517.9,116.469 h -6.88 V 91.3516 h 6.63 c 9.24,0 14.5,4.4961 14.5,12.7424 0,8 -5,12.375 -14.25,12.375 z m 17.49,-70.9846 -18.87,30.4961 h -5.37 V 46.3594 H 2489.9 V 132.59 h 30.12 c 20.87,0 33.11,-9.496 33.11,-27.246 0,-11.9963 -5.99,-20.1174 -16.24,-24.4924 l 21.13,-31.7422 -22.63,-3.625" /><path
         id="path905"
         style="fill:#6999cb;fill-opacity:1;fill-rule:nonzero;stroke:none"
         d="M 2570.64,46.3594 V 132.59 h 53.74 v -17.246 h -32.74 V 99.1016 h 24.99 l 2.75,-17.125 h -27.74 V 63.7344 h 33.87 v -17.375 h -54.87" /><path
         id="path907"
         style="fill:#6999cb;fill-opacity:1;fill-rule:nonzero;stroke:none"
         d="m 2668.07,45.3594 c -11.63,0 -21.37,2.5 -30.12,6.5 l 3.12,18.2461 c 8.87,-4.75 18.74,-8 27.37,-8 6.12,0 10.37,2.625 10.37,7.75 0,4.875 -2.49,7.1211 -14.62,11.7461 -17.25,6.625 -24.75,12.25 -24.75,26.4924 0,16.621 13,25.492 29.5,25.492 11.24,0 18.49,-2.121 25.99,-5.746 l -3.24,-17.992 c -7.76,4.496 -15.88,6.996 -22.5,6.996 -6.5,0 -9.62,-2.75 -9.62,-6.746 0,-4.375 2.37,-6.5 13.11,-10.6253 18.88,-6.8711 26.25,-13.3711 26.25,-27.1211 0,-18.7461 -13.75,-26.9922 -30.86,-26.9922" /><path
         id="path909"
         style="fill:#6999cb;fill-opacity:1;fill-rule:nonzero;stroke:none"
         d="M 2714.51,46.3594 V 132.59 h 53.74 v -17.246 h -32.74 V 99.1016 h 24.99 l 2.75,-17.125 h -27.74 V 63.7344 h 33.86 v -17.375 h -54.86" /><path
         id="path911"
         style="fill:#6999cb;fill-opacity:1;fill-rule:nonzero;stroke:none"
         d="m 2811.99,80.9766 h 19.37 l -9.62,29.9924 z m -0.88,51.9844 h 23.5 l 29.99,-83.9805 -21.62,-3.4961 -6.37,18.7461 h -29.75 l -5.75,-17.8711 h -20.99 l 30.99,86.6016" /><path
         id="path913"
         style="fill:#6999cb;fill-opacity:1;fill-rule:nonzero;stroke:none"
         d="m 2905.24,116.469 h -6.87 V 91.3516 h 6.62 c 9.25,0 14.5,4.4961 14.5,12.7424 0,8 -5,12.375 -14.25,12.375 z m 17.49,-70.9846 -18.86,30.4961 h -5.38 V 46.3594 h -21.25 V 132.59 h 30.12 c 20.87,0 33.12,-9.496 33.12,-27.246 0,-11.9963 -6,-20.1174 -16.24,-24.4924 l 21.12,-31.7422 -22.63,-3.625" /><path
         id="path915"
         style="fill:#6999cb;fill-opacity:1;fill-rule:nonzero;stroke:none"
         d="m 2994.53,44.8594 c -25.74,0 -41.37,17.2461 -41.37,44.4883 0,26.7463 16.38,44.7423 42.37,44.7423 9.13,0 16.5,-2 22.74,-5.625 l -3,-19.242 c -5.11,4 -11.12,6.996 -18.61,6.996 -13.5,0 -22.12,-10.25 -22.12,-26.7424 0,-16.75 9.12,-26.7461 22.62,-26.7461 6.99,0 13.24,2.625 19.62,6.625 l 2.74,-17.875 c -6.86,-3.9961 -14.86,-6.6211 -24.99,-6.6211" /><path
         id="path917"
         style="fill:#6999cb;fill-opacity:1;fill-rule:nonzero;stroke:none"
         d="m 3086.29,46.3594 v 34.9922 h -29.88 V 46.3594 h -21.36 V 132.59 h 21.36 V 99.9727 h 29.88 V 132.59 h 21.49 V 46.3594 h -21.49" /><path
         id="path919"
         style="fill:#6999cb;fill-opacity:1;fill-rule:nonzero;stroke:none"
         d="m 1267.17,0 h 4.0078 v 360.039 h -4.0078 z" /><path
         id="path921"
         style="fill:#6999cb;fill-opacity:1;fill-rule:nonzero;stroke:none"
         d="m 119.129,261.27 c 0.539,-0.536 0.863,-0.45 0.863,-0.45 39.528,1.528 62.168,-13.507 64.094,-19.644 l 15.797,0.277 4.91,10.699 c 0.301,0.871 0.141,2.168 -0.152,2.524 -4.758,5.273 -44.547,16.644 -92.547,16.644 -51.2151,0 -83.6956,-10.117 -90.5471,-15.183 0,0 -1.6211,-0.985 -1.6836,-2.489 -0.0274,-0.691 0.9765,-2.628 0.9765,-2.628 l 1.3907,-3.004 c 0.4297,-0.899 1.039,-0.825 2.0859,-0.219 0,0 0.9258,0.293 1.1211,0.906 0.1797,0.598 -0.4062,1.664 -0.4062,1.664 -1.0274,2.082 0.332,2.352 0.4179,2.399 l 2.9297,1.324 c 1.3906,0.398 1.5547,-0.344 2.0352,-1.445 0,0 0.5273,-1.536 0.914,-1.766 0.7344,-0.449 3.0742,0.871 10.0469,2.574 0.4727,0.09 0.7344,0.145 1.6641,0.512 0.664,0.262 0.0742,2.621 0.0742,2.621 -0.2539,1.144 -0.7852,2.34 1.7578,2.738 l 4.3477,0.875 c 2.0351,0.535 2.2187,-0.523 2.4843,-1.699 0,0 0.1328,-1.75 0.5821,-2.484 0.5664,-0.93 1.6211,0.531 14.9296,1.961 0,0 1.9375,0.054 2.3243,0.722 0.4023,0.703 0.0703,2.262 0.0703,2.262 -0.1328,1.617 -0.7891,2.801 2.2851,2.992 l 5.8282,0.543 c 4.3593,0.699 3.6367,-0.766 3.789,-2.367 0,0 0.1406,-1.746 0.4727,-2.059 0.3242,-0.32 1.707,-0.281 1.707,-0.281 7.4531,0.77 11.6484,0.727 19.5586,1.063 0,0 1.117,0.011 1.523,0.468 0.411,0.457 0.293,0.965 0.293,0.965 0,0.883 -0.187,2.313 0.387,2.918 0.664,0.68 1.684,0.395 2.727,0.395 h 6.668 c 1.031,0 3.109,0.465 3.718,-0.278 0.372,-0.465 0.25,-3.304 0.25,-3.304 0,0 0,-0.461 0.313,-0.746 v 0" /><path
         id="path923"
         style="fill:#6999cb;fill-opacity:1;fill-rule:nonzero;stroke:none"
         d="m 112.406,325.477 c -38.6365,0 -62.4177,-12.407 -77.6365,-27.34 0,0 -0.2656,-0.258 -0.3945,-0.653 -0.2891,-0.757 -0.3672,-1.898 1.1992,-1.351 33.1016,13.89 69.2778,5.195 80.8008,-7.891 0.406,-0.625 0.02,-0.769 -0.453,-0.769 -11.637,-0.141 -21.3986,0.554 -42.9142,-2.453 -11.6289,-1.649 -21.9883,-3.332 -30.7187,-5.606 -14.375,-3.738 -24.5938,-8.445 -30.293,-12.223 -2.10157,-1.128 -2.26172,-1.929 -2.77344,-2.886 -0.6211,-1.883 -0.54688,-1.86 -0.94141,-3.141 -0.71094,-2.422 -1.08594,-3.965 -1.21875,-4.766 -0.23437,-1.457 1.35547,-0.968 2.17969,-0.117 1.74611,1.75 6.48831,5.938 13.46091,9.188 7.1094,3.308 18.8594,7.07 31.6211,9.426 17.0156,3.125 37.711,5.136 56.6408,5.183 21.949,0.07 41.637,-2.219 58.082,-5.422 16.734,-3.269 29.957,-7.793 38.508,-11.968 4.015,-1.954 6.273,-3.754 8.961,-6.024 2.125,-2.176 2.254,-0.316 2.214,0.246 0,0 -0.382,2.906 -3.945,9.469 -10.933,20.09 -40.109,59.098 -102.379,59.098" /><path
         id="path925"
         style="fill:#6999cb;fill-opacity:1;fill-rule:nonzero;stroke:none"
         d="m 0.125,67.0156 c 0,-8.9687 37.2969,-27.375 114.496,-27.375 74.914,0 114.465,18.4063 114.465,27.375 l -0.383,13.7578 c 0,-0.2656 -0.058,0.918 -0.164,0.6016 -0.129,2.4844 -4.082,2.9609 -16.191,3.1406 l -0.278,7.6367 c 0,-0.7812 -2.554,-2.4492 -4.14,-3.3671 -9.871,-5.6797 -47.559,-14.1563 -94.707,-14.1563 -54.5863,0 -92.8128,11.3125 -98.8441,17.5234 L 14.25,80.3633 c 17.9805,-12.836 73.3203,-24.3438 129.215,-18.3906 1.66,0.039 2.223,0.3828 3.914,-0.1016 0.453,-0.1484 1.996,-1.4961 -1.047,-2.6055 C 113.926,48.5625 33.8984,50.9531 0,76.6797 l 0.160156,-9.6641" /><path
         id="path927"
         style="fill:#6999cb;fill-opacity:1;fill-rule:nonzero;stroke:none"
         d="m 159.816,244.816 h 0.68 c -0.105,0.032 -0.223,0.039 -0.34,0.039 -0.125,0 -0.246,-0.007 -0.34,-0.039 v 0" /><path
         id="path929"
         style="fill:#6999cb;fill-opacity:1;fill-rule:nonzero;stroke:none"
         d="m 158.988,241.934 c 0,-0.047 0.02,-0.106 0.02,-0.133 v 2.41 c 0,-0.031 -0.02,-0.082 -0.02,-0.125 v -2.152" /><path
         id="path931"
         style="fill:#6999cb;fill-opacity:1;fill-rule:nonzero;stroke:none"
         d="m 159.008,241.801 v 2.41 -2.41" /><path
         id="path933"
         style="fill:#6999cb;fill-opacity:1;fill-rule:nonzero;stroke:none"
         d="m 138.543,245.695 c 0.02,0 0.035,0.039 0.094,0.039 h -0.192 c 0.032,0 0.067,-0.039 0.098,-0.039 v 0" /><path
         id="path935"
         style="fill:#6999cb;fill-opacity:1;fill-rule:nonzero;stroke:none"
         d="m 159.008,241.801 v 0" /><path
         id="path937"
         style="fill:#6999cb;fill-opacity:1;fill-rule:nonzero;stroke:none"
         d="m 160.34,250.352 -21.102,0.015 c -1.031,0 -1.48,-0.519 -1.511,-1.527 v -2.387 c -0.008,-1.101 0.48,-1.598 1.609,-1.605 h 6.523 c 0.602,0.039 0.762,-0.25 0.789,-0.336 0.239,-0.657 -0.96,-1.184 -1.351,-1.461 l -3.234,-2.121 c -0.434,-0.258 -0.86,-0.86 -0.86,-2.012 l -0.14,-151.2383 c 0.312,-2.6563 4.546,-2.9141 9.136,-2.8867 3.875,0.0117 8.465,0.2148 8.946,2.8125 0,0 -0.129,143.9415 0.003,156.3825 0.032,0.571 0.274,0.688 0.372,0.739 0.14,0.089 0.804,0.16 0.804,0.16 0.957,0.035 1.481,0.511 1.481,1.461 v 2.55 c -0.035,0.934 -0.633,1.418 -1.465,1.454 v 0" /><path
         id="path939"
         style="fill:#6999cb;fill-opacity:1;fill-rule:nonzero;stroke:none"
         d="m 125.672,145.145 0.488,1.003 h 1.434 l -0.024,0.942 H 98.2695 v -0.942 h 1.5625 l 0.422,-0.929 1.758,-3.672 c 0,0 0.312,-0.332 0.715,-0.504 0.351,-0.16 1.128,-0.227 1.418,-0.227 7.699,-0.078 6.019,0 7.226,0 0.563,-0.011 1.352,-0.011 1.738,-0.472 0.25,-0.336 0.473,-1.235 -0.605,-1.934 -2.516,-1.683 -6.707,-4.43 -8.66,-5.711 -0.246,-0.133 -0.91,-0.57 -1.117,-1.121 -0.266,-0.59 -0.204,-1.047 -0.204,-1.047 v -28.426 l -2.484,-0.964 c 0,0 -0.7617,-5.6722 0.102,-6.2543 0.82,-0.5781 24.707,-0.5781 25.543,-0.039 0.804,0.5429 0.097,6.3903 0.097,6.3903 l -2.515,0.867 v 38.168 l 2.406,4.872 v 0" /><path
         id="path941"
         style="fill:#6999cb;fill-opacity:1;fill-rule:nonzero;stroke:none"
         d="m 201.27,242.094 -21.11,0.027 c -1.031,0.035 -1.484,-0.508 -1.519,-1.547 v -2.347 c 0,-1.114 0.48,-1.594 1.593,-1.622 h 6.551 c 0.594,0.04 0.754,-0.234 0.778,-0.332 0.253,-0.66 -0.95,-1.21 -1.368,-1.468 l -3.207,-2.121 c -0.461,-0.254 -0.875,-0.84 -0.867,-2.016 L 182,94.3086 c 0.293,-2.6367 4.516,-2.875 9.129,-2.8672 3.894,0 8.445,0.2305 8.934,2.8008 0,0 -0.137,129.0588 0.015,141.4878 0,0.579 0.27,0.723 0.352,0.766 0.148,0.09 0.804,0.149 0.804,0.149 0.965,0.027 1.493,0.519 1.493,1.464 v 2.563 c -0.047,0.922 -0.633,1.402 -1.457,1.422 v 0" /><path
         id="path943"
         style="fill:#6999cb;fill-opacity:1;fill-rule:nonzero;stroke:none"
         d="m 85.9102,250.352 -21.0977,0.015 c -1.0312,0 -1.5117,-0.535 -1.5117,-1.551 v -2.363 c 0,-1.101 0.4609,-1.605 1.582,-1.605 h 6.5469 c 0.6016,0.039 0.7617,-0.258 0.7851,-0.336 0.254,-0.657 -0.9531,-1.207 -1.3632,-1.461 l -3.2071,-2.121 c -0.4492,-0.258 -0.8867,-0.879 -0.8672,-2.02 L 66.6445,87.6445 c 0.3008,-2.6367 4.5274,-2.8789 9.1289,-2.8515 3.875,0 8.4532,0.2148 8.9375,2.7929 0,0 -0.1093,143.9611 0.0274,156.3791 0,0.578 0.25,0.711 0.3398,0.762 0.1563,0.089 0.8203,0.16 0.8203,0.16 0.9454,0.011 1.4727,0.511 1.4727,1.461 v 2.539 c -0.043,0.945 -0.6445,1.429 -1.4609,1.465 v 0" /><path
         id="path945"
         style="fill:#6999cb;fill-opacity:1;fill-rule:nonzero;stroke:none"
         d="m 44.8359,241.711 -21.1132,0.031 c -1.0196,0 -1.4922,-0.531 -1.5039,-1.558 v -2.36 c 0,-1.105 0.4648,-1.586 1.5898,-1.586 l 6.5547,-0.015 c 0.5859,0.035 0.7383,-0.243 0.7734,-0.336 0.2539,-0.657 -0.9492,-1.215 -1.3672,-1.489 l -3.1953,-2.085 c -0.4726,-0.27 -0.8984,-0.883 -0.8672,-2.036 L 25.5703,93.9336 c 0.2891,-2.6523 4.5313,-2.918 9.125,-2.9063 3.8906,0 8.4531,0.254 8.9375,2.8243 0,0 -0.1094,129.0664 0.0274,141.4924 0,0.566 0.2695,0.715 0.3476,0.758 0.1445,0.121 0.7891,0.156 0.7891,0.156 0.9687,0.015 1.5039,0.5 1.5039,1.461 v 2.539 c -0.0508,0.926 -0.6445,1.433 -1.4649,1.453 v 0" /><path
         id="path947"
         style="fill:#6999cb;fill-opacity:1;fill-rule:nonzero;stroke:none"
         d="m 1150.32,242.566 c -14.07,39.77 -50.83,65.856 -97.45,65.856 -71.358,0 -115.823,-51.727 -115.823,-123.516 0,-77.363 55.59,-134.2185 120.523,-134.2185 33.78,0 75.28,11.543 104.3,63.2425 h 8.13 c -5.57,-19.1995 -17.1,-45.7464 -27.35,-62.3753 -27.38,3.8125 -46.15,-11.6016 -96.6,-11.6016 -86.804,0 -149.171,57.2969 -149.171,136.3709 0,82.946 64.101,142.762 153.441,142.762 53.86,0 76.9,-17.106 90.19,-17.106 4.7,0 6.81,1.293 7.69,2.575 h 6.37 l 3.89,-61.989 h -8.14" /><path
         id="path949"
         style="fill:#6999cb;fill-opacity:1;fill-rule:nonzero;stroke:none"
         d="m 795.203,312.668 v -8.113 c 34.137,-0.856 41.844,-5.567 41.844,-31.614 V 102.844 L 635.742,312.668 H 475.043 v -8.113 c 35.477,-1.715 41.895,-8.985 41.895,-49.981 V 154.98 c 0,-72.6519 -49.165,-92.7495 -97.426,-92.7495 -63.703,0 -97.457,34.625 -97.457,92.3355 V 273.34 c 0,24.816 10.277,31.215 33.754,31.215 h 3.879 v 8.113 H 249.824 v -8.113 c 29.067,-0.434 36.762,-4.723 36.762,-32.051 V 147.68 c 0,-61.0902 41.863,-107.7269 123.512,-107.7269 92.754,0 126.504,56.9024 126.504,109.9019 v 115.368 c 0,31.675 15.195,39.203 35.011,39.203 11.883,0 23.367,-3.692 32.946,-10.41 V 83.6055 c 0,-19.6485 -8.555,-28.6328 -35.063,-28.6328 h -1.699 v -8.1289 h 99.199 v 8.1289 c -36.34,0 -43.191,6.3867 -43.191,37.1679 V 275.5 L 845.148,43.8203 h 11.157 V 282.336 c 0,16.652 6.828,22.219 38.918,22.219 v 8.113 h -100.02" /></g></g></svg>